<?xml version="1.0" encoding="UTF-8"?>
<svg id="Layer_2" data-name="Layer 2" xmlns="http://www.w3.org/2000/svg" viewBox="0 0 38.41 35.71">
  <defs>
    <style>
      .cls-1 {
        fill: #272525;
      }
    </style>
  </defs>
  <g id="Layer_1-2" data-name="Layer 1">
    <g>
      <path class="cls-1" d="m35.79,6.64h-8.75V1.27c0-.71-.69-1.27-1.57-1.27-.09,0-.18,0-.27.02-.08-.01-.17-.02-.25-.02h-11.8s-.07,0-.1,0c-.04,0-.07,0-.11,0-.88,0-1.57.56-1.57,1.27v5.37H2.62c-1.44,0-2.62,1.17-2.62,2.62v11.8c0,1.39,1.09,2.53,2.46,2.61v9.43c0,1.44,1.05,2.62,2.35,2.62h28.8c1.29,0,2.35-1.17,2.35-2.62v-9.43c1.37-.08,2.46-1.22,2.46-2.61v-11.8c0-1.44-1.17-2.62-2.62-2.62ZM12.68,1.36c.06-.03.19-.06.32-.05.04,0,.08,0,.11,0,.01,0,.03,0,.04,0h11.8s.07,0,.1.01c.09.02.19.02.28,0,.17-.04.34,0,.41.04v6.45s-.14.06-.26.06-.21-.03-.26-.06V2.86c0-.36-.29-.65-.65-.65h-10.7c-.36,0-.65.29-.65.65v4.94s-.14.06-.26.06-.21-.03-.26-.06V1.36Zm11.23,2.15v3.12h-9.4v-3.12h9.4Zm10.75,29.57c0,.72-.47,1.31-1.04,1.31H4.8c-.57,0-1.04-.59-1.04-1.31v-9.42h10.25v1.19c0,1.44,1.17,2.62,2.62,2.62h4.67c1.44,0,2.62-1.17,2.62-2.62v-1.19h10.74v9.42Zm-19.34-8.23v-3.69c0-.72.59-1.31,1.31-1.31h4.67c.72,0,1.31.59,1.31,1.31v3.69c0,.72-.59,1.31-1.31,1.31h-4.67c-.72,0-1.31-.59-1.31-1.31Zm21.8-3.81c0,.72-.59,1.31-1.31,1.31h-11.88v-1.19c0-1.44-1.17-2.62-2.62-2.62h-4.67c-1.44,0-2.62,1.17-2.62,2.62v1.19H2.62c-.72,0-1.31-.59-1.31-1.31v-11.8c0-.72.59-1.31,1.31-1.31h8.76c.02.69.7,1.23,1.56,1.23s1.54-.54,1.56-1.23h9.41c.02.69.7,1.23,1.56,1.23s1.54-.54,1.56-1.23h8.76c.72,0,1.31.59,1.31,1.31v11.8Z"/>
      <path class="cls-1" d="m18.96,25.31c1.26,0,2.29-1.03,2.29-2.29s-1.03-2.29-2.29-2.29-2.29,1.03-2.29,2.29,1.03,2.29,2.29,2.29Zm0-3.93c.9,0,1.64.74,1.64,1.64s-.74,1.64-1.64,1.64-1.64-.74-1.64-1.64.74-1.64,1.64-1.64Z"/>
    </g>
  </g>
</svg>