<?xml version="1.0" encoding="UTF-8"?>
<svg id="Layer_2" data-name="Layer 2" xmlns="http://www.w3.org/2000/svg" viewBox="0 0 35.03 39.26">
  <defs>
    <style>
      .cls-1 {
        fill: #272525;
      }
    </style>
  </defs>
  <g id="Layer_1-2" data-name="Layer 1">
    <g>
      <path class="cls-1" d="m12.58,8.74c.86,0,1.56-.7,1.56-1.56V1.56c0-.86-.7-1.56-1.56-1.56s-1.56.7-1.56,1.56v5.62c0,.86.7,1.56,1.56,1.56Zm-.62-7.18c0-.34.28-.62.62-.62s.62.28.62.62v5.62c0,.34-.28.62-.62.62s-.62-.28-.62-.62V1.56Z"/>
      <path class="cls-1" d="m11.02,23.6c0,.86.7,1.56,1.56,1.56s1.56-.7,1.56-1.56v-5.62c0-.86-.7-1.56-1.56-1.56s-1.56.7-1.56,1.56v5.62Zm.94-5.62c0-.34.28-.62.62-.62s.62.28.62.62v5.62c0,.34-.28.62-.62.62s-.62-.28-.62-.62v-5.62Z"/>
      <path class="cls-1" d="m20.37,3.23c-.42,0-.81.16-1.1.46l-3.97,3.97c-.29.29-.46.69-.46,1.1s.16.81.46,1.1c.29.29.69.46,1.1.46s.81-.16,1.1-.46l3.97-3.97c.29-.29.46-.69.46-1.1s-.16-.81-.46-1.1c-.29-.29-.69-.46-1.1-.46Zm-4.41,5.98c-.12-.12-.18-.27-.18-.44s.06-.32.18-.44l3.97-3.97c.12-.12.28-.18.44-.18s.32.07.44.18c.12.12.18.27.18.44s-.06.32-.18.44l-3.97,3.97c-.24.24-.65.24-.88,0Z"/>
      <path class="cls-1" d="m10.32,16.4c0-.42-.16-.81-.46-1.1-.61-.61-1.6-.61-2.21,0l-3.97,3.97c-.29.29-.46.69-.46,1.1s.16.81.46,1.1c.29.29.69.46,1.1.46s.81-.16,1.1-.46l3.97-3.97c.29-.29.46-.69.46-1.1Zm-1.12.44l-3.97,3.97c-.24.24-.65.24-.88,0-.12-.12-.18-.27-.18-.44s.06-.32.18-.44l3.97-3.97c.12-.12.28-.18.44-.18s.32.06.44.18c.12.12.18.27.18.44s-.06.32-.18.44Z"/>
      <path class="cls-1" d="m16.42,12.58c0,.86.7,1.56,1.56,1.56h5.62c.86,0,1.56-.7,1.56-1.56s-.7-1.56-1.56-1.56h-5.62c-.86,0-1.56.7-1.56,1.56Zm7.8,0c0,.34-.28.62-.62.62h-5.62c-.34,0-.62-.28-.62-.62s.28-.62.62-.62h5.62c.34,0,.62.28.62.62Z"/>
      <path class="cls-1" d="m1.56,14.14h5.62c.86,0,1.56-.7,1.56-1.56s-.7-1.56-1.56-1.56H1.56c-.86,0-1.56.7-1.56,1.56s.7,1.56,1.56,1.56Zm0-2.19h5.62c.34,0,.62.28.62.62s-.28.62-.62.62H1.56c-.34,0-.62-.28-.62-.62s.28-.62.62-.62Z"/>
      <path class="cls-1" d="m7.66,9.87c.29.29.69.46,1.1.46s.81-.16,1.1-.46c.29-.29.46-.69.46-1.1s-.16-.81-.46-1.1l-3.97-3.97c-.61-.61-1.6-.61-2.21,0-.29.29-.46.69-.46,1.1s.16.81.46,1.1l3.97,3.97Zm-3.31-5.52c.12-.12.28-.18.44-.18s.32.06.44.18l3.97,3.97c.12.12.18.27.18.44s-.06.32-.18.44c-.24.24-.65.24-.88,0l-3.97-3.97c-.12-.12-.18-.27-.18-.44s.06-.32.18-.44Z"/>
      <path class="cls-1" d="m34.93,23.65c-.03-.22-.17-.41-.37-.5l-18.28-7.91c-.21-.09-.44-.06-.62.07-.18.13-.27.36-.24.58l2.51,19.76c.03.22.17.41.38.5.2.09.44.06.62-.08l4.58-3.44,4.79,6.38c.12.16.31.25.5.25.13,0,.26-.04.37-.13l5.62-4.23c.13-.1.22-.25.24-.41.02-.16-.02-.33-.12-.46l-4.79-6.38,4.58-3.44c.18-.13.27-.35.24-.57Zm-6.07,3.39c-.13.1-.22.25-.24.41-.02.16.02.33.12.46l4.79,6.38-4.63,3.48-4.79-6.38c-.12-.16-.31-.25-.5-.25-.13,0-.26.04-.37.13l-4.22,3.17-2.23-17.61,16.29,7.05-4.22,3.17Z"/>
    </g>
  </g>
</svg>