<?xml version="1.0" encoding="UTF-8"?>
<svg id="Layer_2" data-name="Layer 2" xmlns="http://www.w3.org/2000/svg" viewBox="0 0 34.14 34.14">
  <defs>
    <style>
      .cls-1 {
        fill: #272525;
      }
    </style>
  </defs>
  <g id="Layer_1-2" data-name="Layer 1">
    <g>
      <path class="cls-1" d="m28.35,4.27C25.23,1.52,21.22,0,17.07,0c-1.45,0-2.9.18-4.29.54-.44.11-.88.25-1.36.42h0c-1.49.52-2.91,1.26-4.21,2.18-.34.24-.67.49-.98.75C2.27,7.15,0,11.95,0,17.07c0,6.27,3.43,12.02,8.94,15.01.27.14.56.29.9.45,2.27,1.06,4.7,1.6,7.22,1.6,1.67,0,3.33-.24,4.92-.72.03,0,.06.01.09.01.06,0,.13,0,.19-.03.25-.08.5-.16.75-.25,2.71-1,5.15-2.69,7.05-4.89.2-.23.39-.47.57-.7.07-.09.11-.2.12-.31,2.2-2.96,3.37-6.47,3.37-10.17,0-4.46-1.71-8.68-4.83-11.89-.31-.31-.63-.62-.96-.91Zm-11.28-2.99c3.82,0,7.5,1.38,10.38,3.9-.24.01-.45,0-.64-.05-.41-.11-.8-.23-1.23-.36-1.76-.54-3.42-1.04-5.37-.43-.48.15-.9.34-1.3.52h-.03c-.48.23-.92.43-1.35.51-.15.03-.29.04-.44.04-.51,0-1.04-.2-1.62-.6-.61-.43-.99-1.04-1.39-1.7-.3-.49-.59-.95-.98-1.33,1.29-.33,2.62-.5,3.96-.5Zm-7.43,29.73s-.06-.03-.09-.05C4.45,28.19,1.27,22.87,1.27,17.07c0-4.73,2.1-9.17,5.76-12.19.23-.19.48-.38.73-.57.93.03,1.22.07,1.45,1.45.05.32.02.66,0,1.01-.04.48-.09.98.08,1.48.13.4.4.67.65.94.33.35.53.58.55.92.08,1.26-1.29,1.6-3.08,1.92-.16.03-.32.06-.48.09-.47.09-.9.18-1.25.33-.91.37-1.45.87-1.65,1.55-.36,1.17.44,2.43,1.16,3.29,1.07,1.26,1.67,3.25,1.4,4.62-.07.34-.19.69-.3,1.03-.37,1.08-.79,2.31.51,3.39.44.37.86.59,1.22.78.21.11.4.21.57.33.38.26.67.59.85,1.28.21.79.28,1.54.2,2.29Zm19.46-3.59c-1.76,2.04-4.02,3.61-6.52,4.53-.08.03-.16.06-.24.09-1.26-1.78-3.42-3.91-5.81-4.58-1.02-.29-1.3-.64-1.81-1.29-.15-.2-.33-.42-.55-.67-.67-.77-1.39-1.09-2.21-1.45-.19-.08-.38-.17-.58-.26-1.3-.62-1.85-1.7-1.57-3.12.42-2.19,2.55-2.94,4.39-2.94.11,0,.22,0,.33,0,.48.02.93.1,1.32.17,1.12.2,2.1.38,3.37-.8.89-.83,1.04-1.71,1.19-2.56.09-.5.17-.98.38-1.49.17-.41.53-.98.9-1.25.33-.24.56-.2.85-.16.23.04.49.08.78-.04.54-.21.85-.62,1.15-1.02.4-.53.77-1.02,1.71-1.07,1.14-.05,3.28.61,3.91,1.74.27.48.22.98-.15,1.53-.28.41-.61.71-.92.99h0c-.57.52-1.17,1.05-1.33,2.2-.17,1.15.27,1.62.7,2.07.26.28.51.54.68.99.24.65.01,1.34-.24,2.06-.23.68-.47,1.38-.34,2.1.04.2.06.43.08.68.04.46.49,2.02.86,3.15-.1.13-.21.26-.32.39Zm1.23-1.78c-.28-.95-.48-1.71-.49-1.88-.02-.27-.05-.54-.1-.79-.07-.4.1-.92.29-1.47.29-.87.63-1.85.22-2.92-.26-.7-.64-1.1-.95-1.42-.36-.38-.44-.46-.36-1,.1-.69.39-.95.93-1.43h0c.07-.07.14-.14.22-.2.11-.1.22-.2.33-.32.1-.1.19-.21.29-.32.1-.12.19-.24.28-.37.87-1.27.51-2.35.21-2.87-.29-.53-.77-.97-1.32-1.32-1.19-.79-2.8-1.16-3.84-1.11-1.54.08-2.22.98-2.67,1.58-.23.31-.38.5-.56.58-.04,0-.12-.02-.16-.02-.36-.05-1.04-.16-1.79.39-.61.45-1.08,1.21-1.33,1.78-.27.65-.37,1.24-.46,1.77-.13.79-.22,1.31-.8,1.84-.81.74-1.24.67-2.28.48-.43-.08-.91-.16-1.48-.19-2.41-.12-5.43.85-6.03,3.97-.34,1.77.27,3.26,1.69,4.18.2.14.42.26.66.38.21.1.41.19.61.28.44.2.8.36,1.13.58.2.14.39.3.57.51.2.22.36.43.5.61.35.45.68.87,1.23,1.21.33.22.75.41,1.31.57.61.17,1.23.48,1.82.86,1.13.75,2.18,1.8,2.96,2.83-1.27.32-2.58.49-3.9.49-2.16,0-4.25-.43-6.22-1.28.02-.13.04-.26.06-.4,0,0,0-.01,0-.02.02-.14.03-.27.03-.41,0-.05,0-.1,0-.14,0-.1,0-.19,0-.29,0-.06,0-.11,0-.17,0-.09,0-.18-.01-.27,0-.06,0-.12-.01-.17,0-.09-.02-.18-.03-.27,0-.06-.01-.11-.02-.17-.02-.1-.03-.2-.05-.3,0-.05-.02-.1-.03-.15-.03-.15-.07-.3-.11-.44-.42-1.54-1.29-1.99-2.07-2.4-.34-.18-.65-.34-.99-.62-.57-.47-.53-.82-.12-2,.13-.38.26-.77.35-1.19.35-1.77-.33-4.12-1.68-5.7-.72-.85-1.06-1.63-.92-2.1.01-.04.03-.07.04-.1.05-.1.13-.2.24-.29.12-.1.26-.19.44-.27.06-.03.12-.05.18-.08h0c.34-.14.92-.24,1.47-.34,1.61-.29,4.29-.76,4.13-3.26-.05-.83-.54-1.35-.9-1.72-.17-.18-.32-.33-.36-.46-.08-.25-.05-.58-.02-.97.03-.4.08-.85,0-1.33-.02-.14-.05-.28-.08-.4,0-.04-.02-.08-.03-.12-.02-.08-.04-.17-.07-.24-.01-.04-.03-.08-.04-.12-.02-.07-.05-.14-.07-.2-.01-.04-.03-.07-.04-.11-.03-.07-.06-.13-.09-.19-.01-.03-.03-.05-.04-.08-.05-.08-.1-.16-.15-.23,0-.01-.02-.02-.03-.03-.04-.06-.09-.11-.14-.16-.02-.02-.04-.04-.06-.06-.04-.04-.08-.07-.12-.1-.02-.02-.05-.04-.07-.05-.04-.03-.09-.06-.13-.08-.02,0-.03-.02-.05-.03.73-.42,1.49-.77,2.28-1.07.03.01.06.03.09.04.58.2.93.76,1.38,1.48.43.69.92,1.48,1.74,2.06.8.56,1.57.84,2.35.84.87,0,1.61-.33,2.32-.66l-.26-.58.29.57c.37-.17.75-.34,1.16-.47,1.58-.5,2.92-.09,4.62.43.44.14.84.26,1.27.37.09.02.18.04.27.06.03,0,.06,0,.09.01.06,0,.12.02.18.02.04,0,.07,0,.11,0,.06,0,.11,0,.17,0,.04,0,.08,0,.12,0,.06,0,.11,0,.17,0,.04,0,.08,0,.12,0,.06,0,.11,0,.17-.02.04,0,.08,0,.12-.01.06,0,.11-.01.17-.02.04,0,.08-.01.12-.02.06,0,.11-.02.17-.03.04,0,.08-.01.13-.02.01,0,.03,0,.04,0,2.73,2.93,4.24,6.74,4.24,10.76,0,3.08-.87,6.02-2.53,8.57Z"/>
      <path class="cls-1" d="m25.46,19.24c-1.26-.32-2.57.12-3.39,1.09-.84-.99-2.16-1.44-3.41-1.1-1.24.33-2.01,1.37-2.01,2.7,0,2.95,4.97,6.47,5.19,6.62l.24.17.24-.17c.21-.15,5.19-3.67,5.19-6.62,0-1.33-.78-2.36-2.05-2.68Zm-3.38,8.43c-1.48-1.09-4.58-3.78-4.58-5.75,0-.94.52-1.64,1.38-1.87.18-.05.39-.08.6-.08.79,0,1.69.38,2.23,1.31l.38.65.36-.66c.61-1.11,1.87-1.45,2.8-1.21.42.11,1.41.51,1.41,1.86,0,1.97-3.1,4.66-4.58,5.75Z"/>
    </g>
  </g>
</svg>