<?xml version="1.0" encoding="UTF-8"?>
<svg id="Layer_2" data-name="Layer 2" xmlns="http://www.w3.org/2000/svg" viewBox="0 0 40.22 20.65">
  <defs>
    <style>
      .cls-1 {
        fill: #272525;
      }
    </style>
  </defs>
  <g id="Layer_1-2" data-name="Layer 1">
    <path class="cls-1" d="m33.88,13.83c-.8-.13-1.65-.24-2.55-.34l-.55-2.66h0S28.69.65,28.69.65c-.04-.21-.17-.4-.35-.52-.18-.12-.41-.16-.62-.11-.06.01-5.91,1.3-7.8,1.3S11.96.03,11.9.02c-.21-.05-.44,0-.62.12-.18.12-.31.31-.35.53l-1.87,10.16s0,0,0,0l-.5,2.7c-.78.09-1.52.19-2.22.3-3.13.49-6.34,1.23-6.34,2.96s3.2,2.46,6.34,2.96c3.68.58,8.58.9,13.77.9s10.08-.32,13.77-.9c3.13-.49,6.34-1.23,6.34-2.96s-3.2-2.46-6.34-2.96Zm-.93,4.41c-3.52.5-8.08.78-12.84.78s-9.32-.28-12.84-.78c-3.88-.55-5.14-1.18-5.52-1.45.38-.27,1.64-.89,5.52-1.45.32-.04.65-.09.98-.13l-.21,1.14c-.04.24.02.48.18.67.15.19.38.29.63.29h22.27c.25,0,.48-.11.63-.3.15-.19.22-.44.17-.68l-.24-1.16c.44.05.86.11,1.27.17,3.87.55,5.14,1.18,5.52,1.45-.38.27-1.64.89-5.52,1.45ZM27.26,1.78l1.73,8.39H10.83l1.55-8.4c1.77.36,5.87,1.16,7.54,1.16s5.61-.8,7.34-1.16ZM9.85,15.5l.68-3.69h18.79l.8,3.87H9.82l.03-.19Z"/>
  </g>
</svg>